%
M48
M72
T01C0.0236
%
T01
X505Y514
X506Y514
X1505Y514
X1506Y514
X2505Y514
X2506Y514
X3505Y514
X3506Y514
X4505Y514
X4506Y514
X5505Y514
X5506Y514
X6505Y514
X6506Y514
X7505Y514
X7506Y514
X8505Y514
X8506Y514
X9505Y514
X9506Y514
X10505Y514
X10506Y514
X11505Y514
X11506Y514
X12505Y514
X12506Y514
X13505Y514
X13506Y514
X14505Y514
X14506Y514
X15505Y514
X15506Y514
X16505Y514
X16506Y514
X17505Y514
X17506Y514
X18505Y514
X18506Y514
X19505Y514
X19506Y514
X19506Y1514
X19505Y1514
X18506Y1514
X18505Y1514
X17506Y1514
X17505Y1514
X16506Y1514
X16505Y1514
X15506Y1514
X15505Y1514
X14506Y1514
X14505Y1514
X13506Y1514
X13505Y1514
X12506Y1514
X12505Y1514
X11506Y1514
X11505Y1514
X10506Y1514
X10505Y1514
X9506Y1514
X9505Y1514
X8506Y1514
X8505Y1514
X7506Y1514
X7505Y1514
X6506Y1514
X6505Y1514
X5506Y1514
X5505Y1514
X4506Y1514
X4505Y1514
X3506Y1514
X3505Y1514
X2506Y1514
X2505Y1514
X1506Y1514
X1505Y1514
X506Y1514
X505Y1514
X506Y2514
X505Y2514
X506Y3514
X505Y3514
X506Y4514
X505Y4514
X506Y5514
X505Y5514
X506Y6514
X505Y6514
X506Y7514
X505Y7514
X506Y8514
X505Y8514
X506Y9514
X505Y9514
X506Y10514
X505Y10514
X506Y11514
X505Y11514
X506Y12514
X505Y12514
X506Y13514
X505Y13514
X506Y14514
X505Y14514
X506Y15514
X505Y15514
X506Y16514
X505Y16514
X506Y17514
X505Y17514
X506Y18514
X505Y18514
X506Y19514
X505Y19514
X505Y19514
X1505Y19514
X1506Y19514
X2505Y19514
X2506Y19514
X3505Y19514
X3506Y19514
X4505Y19514
X4506Y19514
X5505Y19514
X5506Y19514
X6505Y19514
X6506Y19514
X7505Y19514
X7506Y19514
X8505Y19514
X8506Y19514
X9505Y19514
X9506Y19514
X10505Y19514
X10506Y19514
X11505Y19514
X11506Y19514
X12505Y19514
X12506Y19514
X13505Y19514
X13506Y19514
X14505Y19514
X14506Y19514
X15505Y19514
X15506Y19514
X16505Y19514
X16506Y19514
X17505Y19514
X17506Y19514
X18505Y19514
X18506Y19514
X19505Y19514
X19505Y19514
X19506Y19514
X19506Y18514
X19505Y18514
X18506Y18514
X18505Y18514
X17506Y18514
X17505Y18514
X16506Y18514
X16505Y18514
X15506Y18514
X15505Y18514
X14506Y18514
X14505Y18514
X13506Y18514
X13505Y18514
X12506Y18514
X12505Y18514
X11506Y18514
X11505Y18514
X10506Y18514
X10505Y18514
X9506Y18514
X9505Y18514
X8506Y18514
X8505Y18514
X7506Y18514
X7505Y18514
X6506Y18514
X6505Y18514
X5506Y18514
X5505Y18514
X4506Y18514
X4505Y18514
X3506Y18514
X3505Y18514
X2506Y18514
X2505Y18514
X1506Y18514
X1505Y18514
X1506Y17514
X1505Y17514
X2505Y17514
X2506Y17514
X3505Y17514
X3506Y17514
X4505Y17514
X4506Y17514
X5505Y17514
X5506Y17514
X6505Y17514
X6506Y17514
X7505Y17514
X7506Y17514
X8505Y17514
X8506Y17514
X9505Y17514
X9506Y17514
X10505Y17514
X10506Y17514
X11505Y17514
X11506Y17514
X12505Y17514
X12506Y17514
X13505Y17514
X13506Y17514
X14505Y17514
X14506Y17514
X15505Y17514
X15506Y17514
X16505Y17514
X16506Y17514
X17505Y17514
X17506Y17514
X18505Y17514
X18506Y17514
X19505Y17514
X19506Y17514
X19506Y16514
X19505Y16514
X18506Y16514
X18505Y16514
X17506Y16514
X17505Y16514
X16506Y16514
X16505Y16514
X15506Y16514
X15505Y16514
X14506Y16514
X14505Y16514
X13506Y16514
X13505Y16514
X12506Y16514
X12505Y16514
X11506Y16514
X11505Y16514
X10506Y16514
X10505Y16514
X9506Y16514
X9505Y16514
X8506Y16514
X8505Y16514
X7506Y16514
X7505Y16514
X6506Y16514
X6505Y16514
X5506Y16514
X5505Y16514
X4506Y16514
X4505Y16514
X3506Y16514
X3505Y16514
X2506Y16514
X2505Y16514
X1506Y16514
X1505Y16514
X1506Y15514
X1505Y15514
X2505Y15514
X2506Y15514
X3505Y15514
X3506Y15514
X4505Y15514
X4506Y15514
X5505Y15514
X5506Y15514
X6505Y15514
X6506Y15514
X7505Y15514
X7506Y15514
X8505Y15514
X8506Y15514
X9505Y15514
X9506Y15514
X10505Y15514
X10506Y15514
X11505Y15514
X11506Y15514
X12505Y15514
X12506Y15514
X13505Y15514
X13506Y15514
X14505Y15514
X14506Y15514
X15505Y15514
X15506Y15514
X16505Y15514
X16506Y15514
X17505Y15514
X17506Y15514
X18505Y15514
X18506Y15514
X19505Y15514
X19506Y15514
X19506Y14514
X19505Y14514
X18506Y14514
X18505Y14514
X17506Y14514
X17505Y14514
X16506Y14514
X16505Y14514
X15506Y14514
X15505Y14514
X14506Y14514
X14505Y14514
X13506Y14514
X13505Y14514
X12506Y14514
X12505Y14514
X11506Y14514
X11505Y14514
X10506Y14514
X10505Y14514
X9506Y14514
X9505Y14514
X8506Y14514
X8505Y14514
X7506Y14514
X7505Y14514
X6506Y14514
X6505Y14514
X5506Y14514
X5505Y14514
X4506Y14514
X4505Y14514
X3506Y14514
X3505Y14514
X2506Y14514
X2505Y14514
X1506Y14514
X1505Y14514
X1506Y13514
X1505Y13514
X2505Y13514
X2506Y13514
X3505Y13514
X3506Y13514
X4505Y13514
X4506Y13514
X5505Y13514
X5506Y13514
X6505Y13514
X6506Y13514
X7505Y13514
X7506Y13514
X8505Y13514
X8506Y13514
X9505Y13514
X9506Y13514
X10505Y13514
X10506Y13514
X11505Y13514
X11506Y13514
X12505Y13514
X12506Y13514
X13505Y13514
X13506Y13514
X14505Y13514
X14506Y13514
X15505Y13514
X15506Y13514
X16505Y13514
X16506Y13514
X17505Y13514
X17506Y13514
X18505Y13514
X18506Y13514
X19505Y13514
X19506Y13514
X19506Y12514
X19505Y12514
X18506Y12514
X18505Y12514
X17506Y12514
X17505Y12514
X16506Y12514
X16505Y12514
X15506Y12514
X15505Y12514
X14506Y12514
X14505Y12514
X13506Y12514
X13505Y12514
X12506Y12514
X12505Y12514
X11506Y12514
X11505Y12514
X10506Y12514
X10505Y12514
X9506Y12514
X9505Y12514
X8506Y12514
X8505Y12514
X7506Y12514
X7505Y12514
X6506Y12514
X6505Y12514
X5506Y12514
X5505Y12514
X4506Y12514
X4505Y12514
X3506Y12514
X3505Y12514
X2506Y12514
X2505Y12514
X1506Y12514
X1505Y12514
X1506Y11514
X1505Y11514
X2505Y11514
X2506Y11514
X3505Y11514
X3506Y11514
X4505Y11514
X4506Y11514
X5505Y11514
X5506Y11514
X6505Y11514
X6506Y11514
X7505Y11514
X7506Y11514
X8505Y11514
X8506Y11514
X9505Y11514
X9506Y11514
X10505Y11514
X10506Y11514
X11505Y11514
X11506Y11514
X12505Y11514
X12506Y11514
X13505Y11514
X13506Y11514
X14505Y11514
X14506Y11514
X15505Y11514
X15506Y11514
X16505Y11514
X16506Y11514
X17505Y11514
X17506Y11514
X18505Y11514
X18506Y11514
X19505Y11514
X19506Y11514
X19506Y10514
X19505Y10514
X18506Y10514
X18505Y10514
X17506Y10514
X17505Y10514
X16506Y10514
X16505Y10514
X15506Y10514
X15505Y10514
X14506Y10514
X14505Y10514
X13506Y10514
X13505Y10514
X12506Y10514
X12505Y10514
X11506Y10514
X11505Y10514
X10506Y10514
X10505Y10514
X9506Y10514
X9505Y10514
X8506Y10514
X8505Y10514
X7506Y10514
X7505Y10514
X6506Y10514
X6505Y10514
X5506Y10514
X5505Y10514
X4506Y10514
X4505Y10514
X3506Y10514
X3505Y10514
X2506Y10514
X2505Y10514
X1506Y10514
X1505Y10514
X1506Y9514
X1505Y9514
X2505Y9514
X2506Y9514
X3505Y9514
X3506Y9514
X4505Y9514
X4506Y9514
X5505Y9514
X5506Y9514
X6505Y9514
X6506Y9514
X7505Y9514
X7506Y9514
X8505Y9514
X8506Y9514
X9505Y9514
X9506Y9514
X10505Y9514
X10506Y9514
X11505Y9514
X11506Y9514
X12505Y9514
X12506Y9514
X13505Y9514
X13506Y9514
X14505Y9514
X14506Y9514
X15505Y9514
X15506Y9514
X16505Y9514
X16506Y9514
X17505Y9514
X17506Y9514
X18505Y9514
X18506Y9514
X19505Y9514
X19506Y9514
X19506Y8514
X19505Y8514
X18506Y8514
X18505Y8514
X17506Y8514
X17505Y8514
X16506Y8514
X16505Y8514
X15506Y8514
X15505Y8514
X14506Y8514
X14505Y8514
X13506Y8514
X13505Y8514
X12506Y8514
X12505Y8514
X11506Y8514
X11505Y8514
X10506Y8514
X10505Y8514
X9506Y8514
X9505Y8514
X8506Y8514
X8505Y8514
X7506Y8514
X7505Y8514
X6506Y8514
X6505Y8514
X5506Y8514
X5505Y8514
X4506Y8514
X4505Y8514
X3506Y8514
X3505Y8514
X2506Y8514
X2505Y8514
X1506Y8514
X1505Y8514
X1506Y7514
X1505Y7514
X2505Y7514
X2506Y7514
X3505Y7514
X3506Y7514
X4505Y7514
X4506Y7514
X5505Y7514
X5506Y7514
X6505Y7514
X6506Y7514
X7505Y7514
X7506Y7514
X8505Y7514
X8506Y7514
X9505Y7514
X9506Y7514
X10505Y7514
X10506Y7514
X11505Y7514
X11506Y7514
X12505Y7514
X12506Y7514
X13505Y7514
X13506Y7514
X14505Y7514
X14506Y7514
X15505Y7514
X15506Y7514
X16505Y7514
X16506Y7514
X17505Y7514
X17506Y7514
X18505Y7514
X18506Y7514
X19505Y7514
X19506Y7514
X19506Y6514
X19505Y6514
X18506Y6514
X18505Y6514
X17506Y6514
X17505Y6514
X16506Y6514
X16505Y6514
X15506Y6514
X15505Y6514
X14506Y6514
X14505Y6514
X13506Y6514
X13505Y6514
X12506Y6514
X12505Y6514
X11506Y6514
X11505Y6514
X10506Y6514
X10505Y6514
X9506Y6514
X9505Y6514
X8506Y6514
X8505Y6514
X7506Y6514
X7505Y6514
X6506Y6514
X6505Y6514
X5506Y6514
X5505Y6514
X4506Y6514
X4505Y6514
X3506Y6514
X3505Y6514
X2506Y6514
X2505Y6514
X1506Y6514
X1505Y6514
X1506Y5514
X1505Y5514
X2505Y5514
X2506Y5514
X3505Y5514
X3506Y5514
X4505Y5514
X4506Y5514
X5505Y5514
X5506Y5514
X6505Y5514
X6506Y5514
X7505Y5514
X7506Y5514
X8505Y5514
X8506Y5514
X9505Y5514
X9506Y5514
X10505Y5514
X10506Y5514
X11505Y5514
X11506Y5514
X12505Y5514
X12506Y5514
X13505Y5514
X13506Y5514
X14505Y5514
X14506Y5514
X15505Y5514
X15506Y5514
X16505Y5514
X16506Y5514
X17505Y5514
X17506Y5514
X18505Y5514
X18506Y5514
X19505Y5514
X19506Y5514
X19506Y4514
X19505Y4514
X18506Y4514
X18505Y4514
X17506Y4514
X17505Y4514
X16506Y4514
X16505Y4514
X15506Y4514
X15505Y4514
X14506Y4514
X14505Y4514
X13506Y4514
X13505Y4514
X12506Y4514
X12505Y4514
X11506Y4514
X11505Y4514
X10506Y4514
X10505Y4514
X9506Y4514
X9505Y4514
X8506Y4514
X8505Y4514
X7506Y4514
X7505Y4514
X6506Y4514
X6505Y4514
X5506Y4514
X5505Y4514
X4506Y4514
X4505Y4514
X3506Y4514
X3505Y4514
X2506Y4514
X2505Y4514
X1506Y4514
X1505Y4514
X1506Y3514
X1505Y3514
X2505Y3514
X2506Y3514
X3505Y3514
X3506Y3514
X4505Y3514
X4506Y3514
X5505Y3514
X5506Y3514
X6505Y3514
X6506Y3514
X7505Y3514
X7506Y3514
X8505Y3514
X8506Y3514
X9505Y3514
X9506Y3514
X10505Y3514
X10506Y3514
X11505Y3514
X11506Y3514
X12505Y3514
X12506Y3514
X13505Y3514
X13506Y3514
X14505Y3514
X14506Y3514
X15505Y3514
X15506Y3514
X16505Y3514
X16506Y3514
X17505Y3514
X17506Y3514
X18505Y3514
X18506Y3514
X19505Y3514
X19506Y3514
X19506Y2514
X19505Y2514
X18506Y2514
X18505Y2514
X17506Y2514
X17505Y2514
X16506Y2514
X16505Y2514
X15506Y2514
X15505Y2514
X14506Y2514
X14505Y2514
X13506Y2514
X13505Y2514
X12506Y2514
X12505Y2514
X11506Y2514
X11505Y2514
X10506Y2514
X10505Y2514
X9506Y2514
X9505Y2514
X8506Y2514
X8505Y2514
X7506Y2514
X7505Y2514
X6506Y2514
X6505Y2514
X5506Y2514
X5505Y2514
X4506Y2514
X4505Y2514
X3506Y2514
X3505Y2514
X2506Y2514
X2505Y2514
X1506Y2514
X1505Y2514
M30
