G75*
%MOIN*%
%OFA0B0*%
%FSLAX24Y24*%
%IPPOS*%
%LPD*%
%AMOC8*
5,1,8,0,0,1.08239X$1,22.5*
%
%ADD10OC8,0.0396*%
D10*
X000505Y000530D03*
X001505Y000530D03*
X002505Y000530D03*
X003505Y000530D03*
X004505Y000530D03*
X005505Y000530D03*
X006505Y000530D03*
X007505Y000530D03*
X008505Y000530D03*
X009505Y000530D03*
X010505Y000530D03*
X011505Y000530D03*
X012505Y000530D03*
X013505Y000530D03*
X014505Y000530D03*
X015505Y000530D03*
X016505Y000530D03*
X017505Y000530D03*
X018505Y000530D03*
X019505Y000530D03*
X019505Y001530D03*
X018505Y001530D03*
X017505Y001530D03*
X016505Y001530D03*
X015505Y001530D03*
X014505Y001530D03*
X013505Y001530D03*
X012505Y001530D03*
X011505Y001530D03*
X010505Y001530D03*
X009505Y001530D03*
X008505Y001530D03*
X007505Y001530D03*
X006505Y001530D03*
X005505Y001530D03*
X004505Y001530D03*
X003505Y001530D03*
X002505Y001530D03*
X001505Y001530D03*
X000505Y001530D03*
X000505Y002530D03*
X001505Y002530D03*
X002505Y002530D03*
X003505Y002530D03*
X004505Y002530D03*
X005505Y002530D03*
X006505Y002530D03*
X007505Y002530D03*
X008505Y002530D03*
X009505Y002530D03*
X010505Y002530D03*
X011505Y002530D03*
X012505Y002530D03*
X013505Y002530D03*
X014505Y002530D03*
X015505Y002530D03*
X016505Y002530D03*
X017505Y002530D03*
X018505Y002530D03*
X019505Y002530D03*
X019505Y003530D03*
X018505Y003530D03*
X017505Y003530D03*
X016505Y003530D03*
X015505Y003530D03*
X014505Y003530D03*
X013505Y003530D03*
X012505Y003530D03*
X011505Y003530D03*
X010505Y003530D03*
X009505Y003530D03*
X008505Y003530D03*
X007505Y003530D03*
X006505Y003530D03*
X005505Y003530D03*
X004505Y003530D03*
X003505Y003530D03*
X002505Y003530D03*
X001505Y003530D03*
X000505Y003530D03*
X000505Y004530D03*
X001505Y004530D03*
X002505Y004530D03*
X003505Y004530D03*
X004505Y004530D03*
X005505Y004530D03*
X006505Y004530D03*
X007505Y004530D03*
X008505Y004530D03*
X009505Y004530D03*
X010505Y004530D03*
X011505Y004530D03*
X012505Y004530D03*
X013505Y004530D03*
X014505Y004530D03*
X015505Y004530D03*
X016505Y004530D03*
X017505Y004530D03*
X018505Y004530D03*
X019505Y004530D03*
X019505Y005530D03*
X018505Y005530D03*
X017505Y005530D03*
X016505Y005530D03*
X015505Y005530D03*
X014505Y005530D03*
X013505Y005530D03*
X012505Y005530D03*
X011505Y005530D03*
X010505Y005530D03*
X009505Y005530D03*
X008505Y005530D03*
X007505Y005530D03*
X006505Y005530D03*
X005505Y005530D03*
X004505Y005530D03*
X003505Y005530D03*
X002505Y005530D03*
X001505Y005530D03*
X000505Y005530D03*
X000505Y006530D03*
X001505Y006530D03*
X002505Y006530D03*
X003505Y006530D03*
X004505Y006530D03*
X005505Y006530D03*
X006505Y006530D03*
X007505Y006530D03*
X008505Y006530D03*
X009505Y006530D03*
X010505Y006530D03*
X011505Y006530D03*
X012505Y006530D03*
X013505Y006530D03*
X014505Y006530D03*
X015505Y006530D03*
X016505Y006530D03*
X017505Y006530D03*
X018505Y006530D03*
X019505Y006530D03*
X019505Y007530D03*
X018505Y007530D03*
X017505Y007530D03*
X016505Y007530D03*
X015505Y007530D03*
X014505Y007530D03*
X013505Y007530D03*
X012505Y007530D03*
X011505Y007530D03*
X010505Y007530D03*
X009505Y007530D03*
X008505Y007530D03*
X007505Y007530D03*
X006505Y007530D03*
X005505Y007530D03*
X004505Y007530D03*
X003505Y007530D03*
X002505Y007530D03*
X001505Y007530D03*
X000505Y007530D03*
X000505Y008530D03*
X001505Y008530D03*
X002505Y008530D03*
X003505Y008530D03*
X004505Y008530D03*
X005505Y008530D03*
X006505Y008530D03*
X007505Y008530D03*
X008505Y008530D03*
X009505Y008530D03*
X010505Y008530D03*
X011505Y008530D03*
X012505Y008530D03*
X013505Y008530D03*
X014505Y008530D03*
X015505Y008530D03*
X016505Y008530D03*
X017505Y008530D03*
X018505Y008530D03*
X019505Y008530D03*
X019505Y009530D03*
X018505Y009530D03*
X017505Y009530D03*
X016505Y009530D03*
X015505Y009530D03*
X014505Y009530D03*
X013505Y009530D03*
X012505Y009530D03*
X011505Y009530D03*
X010505Y009530D03*
X009505Y009530D03*
X008505Y009530D03*
X007505Y009530D03*
X006505Y009530D03*
X005505Y009530D03*
X004505Y009530D03*
X003505Y009530D03*
X002505Y009530D03*
X001505Y009530D03*
X000505Y009530D03*
X000505Y010530D03*
X001505Y010530D03*
X002505Y010530D03*
X003505Y010530D03*
X004505Y010530D03*
X005505Y010530D03*
X006505Y010530D03*
X007505Y010530D03*
X008505Y010530D03*
X009505Y010530D03*
X010505Y010530D03*
X011505Y010530D03*
X012505Y010530D03*
X013505Y010530D03*
X014505Y010530D03*
X015505Y010530D03*
X016505Y010530D03*
X017505Y010530D03*
X018505Y010530D03*
X019505Y010530D03*
X019505Y011530D03*
X018505Y011530D03*
X017505Y011530D03*
X016505Y011530D03*
X015505Y011530D03*
X014505Y011530D03*
X013505Y011530D03*
X012505Y011530D03*
X011505Y011530D03*
X010505Y011530D03*
X009505Y011530D03*
X008505Y011530D03*
X007505Y011530D03*
X006505Y011530D03*
X005505Y011530D03*
X004505Y011530D03*
X003505Y011530D03*
X002505Y011530D03*
X001505Y011530D03*
X000505Y011530D03*
X000505Y012530D03*
X001505Y012530D03*
X002505Y012530D03*
X003505Y012530D03*
X004505Y012530D03*
X005505Y012530D03*
X006505Y012530D03*
X007505Y012530D03*
X008505Y012530D03*
X009505Y012530D03*
X010505Y012530D03*
X011505Y012530D03*
X012505Y012530D03*
X013505Y012530D03*
X014505Y012530D03*
X015505Y012530D03*
X016505Y012530D03*
X017505Y012530D03*
X018505Y012530D03*
X019505Y012530D03*
X019505Y013530D03*
X018505Y013530D03*
X017505Y013530D03*
X016505Y013530D03*
X015505Y013530D03*
X014505Y013530D03*
X013505Y013530D03*
X012505Y013530D03*
X011505Y013530D03*
X010505Y013530D03*
X009505Y013530D03*
X008505Y013530D03*
X007505Y013530D03*
X006505Y013530D03*
X005505Y013530D03*
X004505Y013530D03*
X003505Y013530D03*
X002505Y013530D03*
X001505Y013530D03*
X000505Y013530D03*
X000505Y014530D03*
X001505Y014530D03*
X002505Y014530D03*
X003505Y014530D03*
X004505Y014530D03*
X005505Y014530D03*
X006505Y014530D03*
X007505Y014530D03*
X008505Y014530D03*
X009505Y014530D03*
X010505Y014530D03*
X011505Y014530D03*
X012505Y014530D03*
X013505Y014530D03*
X014505Y014530D03*
X015505Y014530D03*
X016505Y014530D03*
X017505Y014530D03*
X018505Y014530D03*
X019505Y014530D03*
X019505Y015530D03*
X018505Y015530D03*
X017505Y015530D03*
X016505Y015530D03*
X015505Y015530D03*
X014505Y015530D03*
X013505Y015530D03*
X012505Y015530D03*
X011505Y015530D03*
X010505Y015530D03*
X009505Y015530D03*
X008505Y015530D03*
X007505Y015530D03*
X006505Y015530D03*
X005505Y015530D03*
X004505Y015530D03*
X003505Y015530D03*
X002505Y015530D03*
X001505Y015530D03*
X000505Y015530D03*
X000505Y016530D03*
X001505Y016530D03*
X002505Y016530D03*
X003505Y016530D03*
X004505Y016530D03*
X005505Y016530D03*
X006505Y016530D03*
X007505Y016530D03*
X008505Y016530D03*
X009505Y016530D03*
X010505Y016530D03*
X011505Y016530D03*
X012505Y016530D03*
X013505Y016530D03*
X014505Y016530D03*
X015505Y016530D03*
X016505Y016530D03*
X017505Y016530D03*
X018505Y016530D03*
X019505Y016530D03*
X019505Y017530D03*
X018505Y017530D03*
X017505Y017530D03*
X016505Y017530D03*
X015505Y017530D03*
X014505Y017530D03*
X013505Y017530D03*
X012505Y017530D03*
X011505Y017530D03*
X010505Y017530D03*
X009505Y017530D03*
X008505Y017530D03*
X007505Y017530D03*
X006505Y017530D03*
X005505Y017530D03*
X004505Y017530D03*
X003505Y017530D03*
X002505Y017530D03*
X001505Y017530D03*
X000505Y017530D03*
X000505Y018530D03*
X001505Y018530D03*
X002505Y018530D03*
X003505Y018530D03*
X004505Y018530D03*
X005505Y018530D03*
X006505Y018530D03*
X007505Y018530D03*
X008505Y018530D03*
X009505Y018530D03*
X010505Y018530D03*
X011505Y018530D03*
X012505Y018530D03*
X013505Y018530D03*
X014505Y018530D03*
X015505Y018530D03*
X016505Y018530D03*
X017505Y018530D03*
X018505Y018530D03*
X019505Y018530D03*
X019505Y019530D03*
X018505Y019530D03*
X017505Y019530D03*
X016505Y019530D03*
X015505Y019530D03*
X014505Y019530D03*
X013505Y019530D03*
X012505Y019530D03*
X011505Y019530D03*
X010505Y019530D03*
X009505Y019530D03*
X008505Y019530D03*
X007505Y019530D03*
X006505Y019530D03*
X005505Y019530D03*
X004505Y019530D03*
X003505Y019530D03*
X002505Y019530D03*
X001505Y019530D03*
X000505Y019530D03*
M02*
