%
M48
M72
T01C0.0236
%
T01
X505Y530
X1505Y530
X2505Y530
X3505Y530
X4505Y530
X5505Y530
X6505Y530
X7505Y530
X8505Y530
X9505Y530
X10505Y530
X11505Y530
X12505Y530
X13505Y530
X14505Y530
X15505Y530
X16505Y530
X17505Y530
X18505Y530
X19505Y530
X19505Y1530
X18505Y1530
X17505Y1530
X16505Y1530
X15505Y1530
X14505Y1530
X13505Y1530
X12505Y1530
X11505Y1530
X10505Y1530
X9505Y1530
X8505Y1530
X7505Y1530
X6505Y1530
X5505Y1530
X4505Y1530
X3505Y1530
X2505Y1530
X1505Y1530
X505Y1530
X505Y2530
X1505Y2530
X2505Y2530
X3505Y2530
X4505Y2530
X5505Y2530
X6505Y2530
X7505Y2530
X8505Y2530
X9505Y2530
X10505Y2530
X11505Y2530
X12505Y2530
X13505Y2530
X14505Y2530
X15505Y2530
X16505Y2530
X17505Y2530
X18505Y2530
X19505Y2530
X19505Y3530
X18505Y3530
X17505Y3530
X16505Y3530
X15505Y3530
X14505Y3530
X13505Y3530
X12505Y3530
X11505Y3530
X10505Y3530
X9505Y3530
X8505Y3530
X7505Y3530
X6505Y3530
X5505Y3530
X4505Y3530
X3505Y3530
X2505Y3530
X1505Y3530
X505Y3530
X505Y4530
X1505Y4530
X2505Y4530
X3505Y4530
X4505Y4530
X5505Y4530
X6505Y4530
X7505Y4530
X8505Y4530
X9505Y4530
X10505Y4530
X11505Y4530
X12505Y4530
X13505Y4530
X14505Y4530
X15505Y4530
X16505Y4530
X17505Y4530
X18505Y4530
X19505Y4530
X19505Y5530
X18505Y5530
X17505Y5530
X16505Y5530
X15505Y5530
X14505Y5530
X13505Y5530
X12505Y5530
X11505Y5530
X10505Y5530
X9505Y5530
X8505Y5530
X7505Y5530
X6505Y5530
X5505Y5530
X4505Y5530
X3505Y5530
X2505Y5530
X1505Y5530
X505Y5530
X505Y6530
X1505Y6530
X2505Y6530
X3505Y6530
X4505Y6530
X5505Y6530
X6505Y6530
X7505Y6530
X8505Y6530
X9505Y6530
X10505Y6530
X11505Y6530
X12505Y6530
X13505Y6530
X14505Y6530
X15505Y6530
X16505Y6530
X17505Y6530
X18505Y6530
X19505Y6530
X19505Y7530
X18505Y7530
X17505Y7530
X16505Y7530
X15505Y7530
X14505Y7530
X13505Y7530
X12505Y7530
X11505Y7530
X10505Y7530
X9505Y7530
X8505Y7530
X7505Y7530
X6505Y7530
X5505Y7530
X4505Y7530
X3505Y7530
X2505Y7530
X1505Y7530
X505Y7530
X505Y8530
X1505Y8530
X2505Y8530
X3505Y8530
X4505Y8530
X5505Y8530
X6505Y8530
X7505Y8530
X8505Y8530
X9505Y8530
X10505Y8530
X11505Y8530
X12505Y8530
X13505Y8530
X14505Y8530
X15505Y8530
X16505Y8530
X17505Y8530
X18505Y8530
X19505Y8530
X19505Y9530
X18505Y9530
X17505Y9530
X16505Y9530
X15505Y9530
X14505Y9530
X13505Y9530
X12505Y9530
X11505Y9530
X10505Y9530
X9505Y9530
X8505Y9530
X7505Y9530
X6505Y9530
X5505Y9530
X4505Y9530
X3505Y9530
X2505Y9530
X1505Y9530
X505Y9530
X505Y10530
X1505Y10530
X2505Y10530
X3505Y10530
X4505Y10530
X5505Y10530
X6505Y10530
X7505Y10530
X8505Y10530
X9505Y10530
X10505Y10530
X11505Y10530
X12505Y10530
X13505Y10530
X14505Y10530
X15505Y10530
X16505Y10530
X17505Y10530
X18505Y10530
X19505Y10530
X19505Y11530
X18505Y11530
X17505Y11530
X16505Y11530
X15505Y11530
X14505Y11530
X13505Y11530
X12505Y11530
X11505Y11530
X10505Y11530
X9505Y11530
X8505Y11530
X7505Y11530
X6505Y11530
X5505Y11530
X4505Y11530
X3505Y11530
X2505Y11530
X1505Y11530
X505Y11530
X505Y12530
X1505Y12530
X2505Y12530
X3505Y12530
X4505Y12530
X5505Y12530
X6505Y12530
X7505Y12530
X8505Y12530
X9505Y12530
X10505Y12530
X11505Y12530
X12505Y12530
X13505Y12530
X14505Y12530
X15505Y12530
X16505Y12530
X17505Y12530
X18505Y12530
X19505Y12530
X19505Y13530
X18505Y13530
X17505Y13530
X16505Y13530
X15505Y13530
X14505Y13530
X13505Y13530
X12505Y13530
X11505Y13530
X10505Y13530
X9505Y13530
X8505Y13530
X7505Y13530
X6505Y13530
X5505Y13530
X4505Y13530
X3505Y13530
X2505Y13530
X1505Y13530
X505Y13530
X505Y14530
X1505Y14530
X2505Y14530
X3505Y14530
X4505Y14530
X5505Y14530
X6505Y14530
X7505Y14530
X8505Y14530
X9505Y14530
X10505Y14530
X11505Y14530
X12505Y14530
X13505Y14530
X14505Y14530
X15505Y14530
X16505Y14530
X17505Y14530
X18505Y14530
X19505Y14530
X19505Y15530
X18505Y15530
X17505Y15530
X16505Y15530
X15505Y15530
X14505Y15530
X13505Y15530
X12505Y15530
X11505Y15530
X10505Y15530
X9505Y15530
X8505Y15530
X7505Y15530
X6505Y15530
X5505Y15530
X4505Y15530
X3505Y15530
X2505Y15530
X1505Y15530
X505Y15530
X505Y16530
X1505Y16530
X2505Y16530
X3505Y16530
X4505Y16530
X5505Y16530
X6505Y16530
X7505Y16530
X8505Y16530
X9505Y16530
X10505Y16530
X11505Y16530
X12505Y16530
X13505Y16530
X14505Y16530
X15505Y16530
X16505Y16530
X17505Y16530
X18505Y16530
X19505Y16530
X19505Y17530
X18505Y17530
X17505Y17530
X16505Y17530
X15505Y17530
X14505Y17530
X13505Y17530
X12505Y17530
X11505Y17530
X10505Y17530
X9505Y17530
X8505Y17530
X7505Y17530
X6505Y17530
X5505Y17530
X4505Y17530
X3505Y17530
X2505Y17530
X1505Y17530
X505Y17530
X505Y18530
X1505Y18530
X2505Y18530
X3505Y18530
X4505Y18530
X5505Y18530
X6505Y18530
X7505Y18530
X8505Y18530
X9505Y18530
X10505Y18530
X11505Y18530
X12505Y18530
X13505Y18530
X14505Y18530
X15505Y18530
X16505Y18530
X17505Y18530
X18505Y18530
X19505Y18530
X19505Y19530
X18505Y19530
X17505Y19530
X16505Y19530
X15505Y19530
X14505Y19530
X13505Y19530
X12505Y19530
X11505Y19530
X10505Y19530
X9505Y19530
X8505Y19530
X7505Y19530
X6505Y19530
X5505Y19530
X4505Y19530
X3505Y19530
X2505Y19530
X1505Y19530
X505Y19530
M30
